<svg xmlns="http://www.w3.org/2000/svg" width="70mm" height="70mm" viewBox="0 0 70 70"><path d="M5 5h60v60H5z" style="fill:none;fill-opacity:.88;stroke:#000;stroke-width:.5;stroke-linecap:round;stroke-linejoin:round;stroke-miterlimit:4;stroke-dasharray:.5,1;stroke-dashoffset:0"/><path d="M6 25h60M45 25v41" style="fill:none;stroke:#000;stroke-width:.5;stroke-linecap:round;stroke-linejoin:round;stroke-miterlimit:4;stroke-dasharray:none;stroke-opacity:1"/><circle cx="45" cy="25" r="1" style="fill:#000;fill-opacity:.88;stroke:none;stroke-width:.499999;stroke-linecap:round;stroke-linejoin:round;stroke-miterlimit:4;stroke-dasharray:none"/><path d="M64 45H27M25 64V40M25 20h1M26 31V20M27 45v-5M29 40h-6M23 36v4M29 36v4" style="fill:none;stroke:#000;stroke-width:.5;stroke-linecap:round;stroke-linejoin:round;stroke-miterlimit:4;stroke-dasharray:none;stroke-opacity:1"/><path d="M23 36a3 3 0 0 1 3-3 3 3 0 0 1 3 3" style="fill:none;fill-opacity:.88;stroke:#000;stroke-width:.499999;stroke-linecap:round;stroke-linejoin:round;stroke-miterlimit:4;stroke-dasharray:none;stroke-dashoffset:0"/><circle cx="26" cy="32" r="1" style="fill:none;fill-opacity:.88;stroke:#000;stroke-width:.499999;stroke-linecap:round;stroke-linejoin:round;stroke-miterlimit:4;stroke-dasharray:none;stroke-dashoffset:0"/><path d="M25 20V4M45 6v9M45 15H15M15 30V15M15 45v-4M15 45H4M18 41h-6M12 30v11M18 30v11M18 30h-6" style="fill:none;stroke:#000;stroke-width:.5;stroke-linecap:round;stroke-linejoin:round;stroke-miterlimit:4;stroke-dasharray:none;stroke-opacity:1"/><text xml:space="preserve" x="14.956" y="33.232" style="font-style:normal;font-weight:400;font-size:3.52778px;line-height:1.25;font-family:sans-serif;text-align:center;letter-spacing:0;word-spacing:0;text-anchor:middle;fill:#000;fill-opacity:1;stroke:none;stroke-width:.264583"><tspan x="14.956" y="33.232" style="font-style:normal;font-variant:normal;font-weight:700;font-stretch:normal;font-size:3.52778px;font-family:sans-serif;-inkscape-font-specification:&quot;sans-serif Bold&quot;;text-align:center;text-anchor:middle;stroke-width:.264583">D</tspan></text><text xml:space="preserve" x="15.005" y="40.069" style="font-style:normal;font-weight:400;font-size:3.52778px;line-height:1.25;font-family:sans-serif;text-align:center;letter-spacing:0;word-spacing:0;text-anchor:middle;fill:#000;fill-opacity:1;stroke:none;stroke-width:.264583"><tspan x="15.005" y="40.069" style="font-style:normal;font-variant:normal;font-weight:700;font-stretch:normal;font-size:3.52778px;font-family:sans-serif;-inkscape-font-specification:&quot;sans-serif Bold&quot;;text-align:center;text-anchor:middle;stroke-width:.264583">Q</tspan></text><path d="m12 34 2 1.5M12 37l2-1.5" style="fill:none;stroke:#000;stroke-width:.5;stroke-linecap:round;stroke-linejoin:round;stroke-miterlimit:4;stroke-dasharray:none;stroke-opacity:1"/><text xml:space="preserve" x="9.442" y="36.519" style="font-style:normal;font-weight:400;font-size:2.82222px;line-height:1.25;font-family:sans-serif;text-align:center;letter-spacing:0;word-spacing:0;text-anchor:middle;fill:#000;fill-opacity:1;stroke:none;stroke-width:.264583"><tspan x="9.442" y="36.519" style="font-style:normal;font-variant:normal;font-weight:700;font-stretch:normal;font-size:2.82222px;font-family:sans-serif;-inkscape-font-specification:&quot;sans-serif Bold&quot;;text-align:center;text-anchor:middle;stroke-width:.264583">clk</tspan></text><path d="m24 6 1-2M26 6l-1-2M45 6l1-2M45 6l-1-2M24 66l1-2M26 66l-1-2M45 66l1-2M45 66l-1-2M4 26l2-1M4 24l2 1M4 45l2-1M4 45l2 1M64 26l2-1M64 24l2 1M64 45l2-1M64 45l2 1" style="fill:none;stroke:#000;stroke-width:.5;stroke-linecap:round;stroke-linejoin:round;stroke-miterlimit:4;stroke-dasharray:none;stroke-opacity:1"/></svg>