<svg xmlns="http://www.w3.org/2000/svg" width="911.811" height="787.087" viewBox="0 0 241.25 208.25"><g style="stroke:#b3b3b3;stroke-width:.1;stroke-dasharray:none;stroke-dashoffset:0"><path d="M31.85 48.975h-1l-.25-.25V46.6l-.75-.75h-1l-1.5 1.5-1.5-1.5h-2l-1.5 1.5-1.5-1.5h-2l-1.5 1.5-1.5-1.5h-2l-1.5 1.5-1.5-1.5h-.5l-.25-.25v-.375l.25-.25h18.975l.525-.525V41.1l-.25-.25h-.75l-1.5 1.5-1.5-1.5h-2l-1.5 1.5-1.5-1.5h-2l-1.5 1.5-1.5-1.5h-2l-1.5 1.5-1.5-1.5h-.5l-.25-.25v-.375l.25-.25h18.975l.525-.525V36.1l-.25-.25h-.75l-1.5 1.5-1.5-1.5h-2l-1.5 1.5-1.5-1.5h-2l-1.5 1.5-1.5-1.5h-2l-1.5 1.5-1.5-1.5h-.5l-.25-.25v-.375l.25-.25h18.975l.525-.525V31.1l-.25-.25h-.75l-1.5 1.5-1.5-1.5h-2l-1.5 1.5-1.5-1.5h-2l-1.5 1.5-1.5-1.5h-2l-1.5 1.5-1.5-1.5h-2" style="fill:none;stroke:#b3b3b3;stroke-width:.08;stroke-linecap:round;stroke-linejoin:round;stroke-dasharray:none;stroke-dashoffset:0;stroke-opacity:1" transform="matrix(10 0 0 10 -80.375 -295.625)"/><g style="stroke:#b3b3b3;stroke-width:.08;stroke-dasharray:none;stroke-dashoffset:0"><path d="m11.33 31.17.08.24-.24-.08M13.29 31.25l.24-.08-.08.24M16.33 31.17l.08.24-.24-.08M18.29 31.25l.24-.08-.08.24M21.33 31.17l.08.24-.24-.08M23.29 31.25l.24-.08-.08.24M26.33 31.17l.08.24-.24-.08M28.29 31.25l.24-.08-.08.24M11.33 36.17l.08.24-.24-.08M13.29 36.25l.24-.08-.08.24M16.33 36.17l.08.24-.24-.08M18.29 36.25l.24-.08-.08.24M21.33 36.17l.08.24-.24-.08M23.29 36.25l.24-.08-.08.24M26.33 36.17l.08.24-.24-.08M28.29 36.25l.24-.08-.08.24M11.33 41.17l.08.24-.24-.08M13.29 41.25l.24-.08-.08.24M16.33 41.17l.08.24-.24-.08M18.29 41.25l.24-.08-.08.24M21.33 41.17l.08.24-.24-.08M23.29 41.25l.24-.08-.08.24M26.33 41.17l.08.24-.24-.08M28.29 41.25l.24-.08-.08.24M11.33 46.17l.08.24-.24-.08M13.29 46.25l.24-.08-.08.24M16.33 46.17l.08.24-.24-.08M18.29 46.25l.24-.08-.08.24M21.33 46.17l.08.24-.24-.08M23.29 46.25l.24-.08-.08.24M26.33 46.17l.08.24-.24-.08M28.29 46.25l.24-.08-.08.24M8.625 30.738l.225.112-.225.112M31.625 48.863l.225.112-.225.112" style="fill:none;stroke:#b3b3b3;stroke-width:.08;stroke-linecap:round;stroke-linejoin:round;stroke-dasharray:none;stroke-dashoffset:0;stroke-opacity:1" transform="matrix(10 0 0 10 -80.375 -295.625)"/></g></g><g style="fill:none;stroke:#000;stroke-width:.05;stroke-dasharray:.05,.1;stroke-dashoffset:0" transform="matrix(10 0 0 10 -80.375 -295.625)"><rect width="4" height="4" x="10.35" y="30.35" rx=".125" ry=".125" style="fill:none;fill-opacity:.2;stroke:#000;stroke-width:.05;stroke-linecap:round;stroke-dasharray:.05,.1;stroke-dashoffset:0"/><rect width="4" height="4" x="15.35" y="30.35" rx=".125" ry=".125" style="fill:none;fill-opacity:.2;stroke:#000;stroke-width:.05;stroke-linecap:round;stroke-dasharray:.05,.1;stroke-dashoffset:0"/><rect width="4" height="4" x="20.35" y="30.35" rx=".125" ry=".125" style="fill:none;fill-opacity:.2;stroke:#000;stroke-width:.05;stroke-linecap:round;stroke-dasharray:.05,.1;stroke-dashoffset:0"/><rect width="4" height="4" x="25.35" y="30.35" rx=".125" ry=".125" style="fill:none;fill-opacity:.2;stroke:#000;stroke-width:.05;stroke-linecap:round;stroke-dasharray:.05,.1;stroke-dashoffset:0"/><rect width="4" height="4" x="10.35" y="35.35" rx=".125" ry=".125" style="fill:none;fill-opacity:.2;stroke:#000;stroke-width:.05;stroke-linecap:round;stroke-dasharray:.05,.1;stroke-dashoffset:0"/><rect width="4" height="4" x="15.35" y="35.35" rx=".125" ry=".125" style="fill:none;fill-opacity:.2;stroke:#000;stroke-width:.05;stroke-linecap:round;stroke-dasharray:.05,.1;stroke-dashoffset:0"/><rect width="4" height="4" x="20.35" y="35.35" rx=".125" ry=".125" style="fill:none;fill-opacity:.2;stroke:#000;stroke-width:.05;stroke-linecap:round;stroke-dasharray:.05,.1;stroke-dashoffset:0"/><rect width="4" height="4" x="25.35" y="35.35" rx=".125" ry=".125" style="fill:none;fill-opacity:.2;stroke:#000;stroke-width:.05;stroke-linecap:round;stroke-dasharray:.05,.1;stroke-dashoffset:0"/><rect width="4" height="4" x="10.35" y="40.35" rx=".125" ry=".125" style="fill:none;fill-opacity:.2;stroke:#000;stroke-width:.05;stroke-linecap:round;stroke-dasharray:.05,.1;stroke-dashoffset:0"/><rect width="4" height="4" x="15.35" y="40.35" rx=".125" ry=".125" style="fill:none;fill-opacity:.2;stroke:#000;stroke-width:.05;stroke-linecap:round;stroke-dasharray:.05,.1;stroke-dashoffset:0"/><rect width="4" height="4" x="20.35" y="40.35" rx=".125" ry=".125" style="fill:none;fill-opacity:.2;stroke:#000;stroke-width:.05;stroke-linecap:round;stroke-dasharray:.05,.1;stroke-dashoffset:0"/><rect width="4" height="4" x="25.35" y="40.35" rx=".125" ry=".125" style="fill:none;fill-opacity:.2;stroke:#000;stroke-width:.05;stroke-linecap:round;stroke-dasharray:.05,.1;stroke-dashoffset:0"/><rect width="4" height="4" x="10.35" y="45.35" rx=".125" ry=".125" style="fill:none;fill-opacity:.2;stroke:#000;stroke-width:.05;stroke-linecap:round;stroke-dasharray:.05,.1;stroke-dashoffset:0"/><rect width="4" height="4" x="15.35" y="45.35" rx=".125" ry=".125" style="fill:none;fill-opacity:.2;stroke:#000;stroke-width:.05;stroke-linecap:round;stroke-dasharray:.05,.1;stroke-dashoffset:0"/><rect width="4" height="4" x="20.35" y="45.35" rx=".125" ry=".125" style="fill:none;fill-opacity:.2;stroke:#000;stroke-width:.05;stroke-linecap:round;stroke-dasharray:.05,.1;stroke-dashoffset:0"/><rect width="4" height="4" x="25.35" y="45.35" rx=".125" ry=".125" style="fill:none;fill-opacity:.2;stroke:#000;stroke-width:.05;stroke-linecap:round;stroke-dasharray:.05,.1;stroke-dashoffset:0"/></g><g style="stroke:#000;stroke-width:.05;stroke-dasharray:none"><path d="m10.963 32.612-.226.113.226.112M13.963 32.612l-.226.113.226.112M15.963 32.612l-.226.113.226.112M18.963 32.612l-.226.113.226.112M20.963 32.612l-.226.113.226.112M23.963 32.612l-.226.113.226.112M25.963 32.612l-.226.113.226.112M28.963 32.612l-.226.113.226.112" style="fill:none;stroke:#000;stroke-width:.0500001;stroke-linecap:round;stroke-linejoin:round;stroke-dasharray:none;stroke-opacity:1" transform="matrix(10 0 0 10 -80.375 -295.625)"/><g style="stroke:#000;stroke-width:.05;stroke-dasharray:none"><path d="m10.963 37.613-.226.112.226.112M13.963 37.613l-.226.112.226.112M15.963 37.613l-.226.112.226.112M18.963 37.613l-.226.112.226.112M20.963 37.613l-.226.112.226.112M23.963 37.613l-.226.112.226.112M25.963 37.613l-.226.112.226.112M28.963 37.613l-.226.112.226.112" style="fill:none;stroke:#000;stroke-width:.0500001;stroke-linecap:round;stroke-linejoin:round;stroke-dasharray:none;stroke-opacity:1" transform="matrix(10 0 0 10 -80.375 -295.625)"/></g><g style="stroke:#000;stroke-width:.05;stroke-dasharray:none"><path d="m10.963 42.613-.226.112.226.112M13.963 42.613l-.226.112.226.112M15.963 42.613l-.226.112.226.112M18.963 42.613l-.226.112.226.112M20.963 42.613l-.226.112.226.112M23.963 42.613l-.226.112.226.112M25.963 42.613l-.226.112.226.112M28.963 42.613l-.226.112.226.112" style="fill:none;stroke:#000;stroke-width:.0500001;stroke-linecap:round;stroke-linejoin:round;stroke-dasharray:none;stroke-opacity:1" transform="matrix(10 0 0 10 -80.375 -295.625)"/></g><g style="stroke:#000;stroke-width:.05;stroke-dasharray:none"><path d="m11.863 30.963.112-.226.113.226M11.863 33.963l.112-.226.113.225M11.863 35.963l.112-.226.113.226M11.863 38.963l.112-.226.113.226M11.863 40.963l.112-.226.113.226M11.863 43.963l.112-.226.113.226M11.863 45.963l.112-.226.113.225M11.863 48.963l.112-.226.113.226" style="fill:none;stroke:#000;stroke-width:.0500001;stroke-linecap:round;stroke-linejoin:round;stroke-dasharray:none;stroke-opacity:1" transform="matrix(10 0 0 10 -80.375 -295.625)"/></g><g style="stroke:#000;stroke-width:.05;stroke-dasharray:none"><path d="m12.613 30.738.112.225.113-.226M12.613 33.737l.112.225.113-.225M12.613 35.737l.112.226.113-.226M12.613 38.737l.112.226.113-.226M12.613 40.737l.112.226.113-.226M12.613 43.738l.112.225.113-.226M12.613 45.737l.112.225.113-.225M12.613 48.737l.112.226.113-.226" style="fill:none;stroke:#000;stroke-width:.0500001;stroke-linecap:round;stroke-linejoin:round;stroke-dasharray:none;stroke-opacity:1" transform="matrix(10 0 0 10 -80.375 -295.625)"/></g><g style="stroke:#000;stroke-width:.05;stroke-dasharray:none"><path d="m16.863 30.963.112-.226.112.226M16.863 33.963l.112-.226.112.225M16.863 35.963l.112-.226.113.226M16.863 38.963l.112-.226.113.226M16.863 40.963l.112-.226.113.226M16.863 43.963l.112-.226.112.226M16.863 45.963l.112-.226.112.225M16.863 48.963l.112-.226.113.226" style="fill:none;stroke:#000;stroke-width:.0500001;stroke-linecap:round;stroke-linejoin:round;stroke-dasharray:none;stroke-opacity:1" transform="matrix(10 0 0 10 -80.375 -295.625)"/></g><g style="stroke:#000;stroke-width:.05;stroke-dasharray:none"><path d="m17.613 30.738.112.225.112-.226M17.613 33.737l.112.225.112-.225M17.613 35.737l.112.226.113-.226M17.613 38.737l.112.226.113-.226M17.613 40.737l.112.226.113-.226M17.613 43.738l.112.225.112-.226M17.613 45.737l.112.225.112-.225M17.613 48.737l.112.226.113-.226" style="fill:none;stroke:#000;stroke-width:.0500001;stroke-linecap:round;stroke-linejoin:round;stroke-dasharray:none;stroke-opacity:1" transform="matrix(10 0 0 10 -80.375 -295.625)"/></g><g style="stroke:#000;stroke-width:.05;stroke-dasharray:none"><path d="m21.863 30.963.112-.226.112.226M21.863 33.963l.112-.226.112.225M21.863 35.963l.112-.226.113.226M21.863 38.963l.112-.226.113.226M21.863 40.963l.112-.226.113.226M21.863 43.963l.112-.226.112.226M21.863 45.963l.112-.226.112.225M21.863 48.963l.112-.226.113.226" style="fill:none;stroke:#000;stroke-width:.0500001;stroke-linecap:round;stroke-linejoin:round;stroke-dasharray:none;stroke-opacity:1" transform="matrix(10 0 0 10 -80.375 -295.625)"/></g><g style="stroke:#000;stroke-width:.05;stroke-dasharray:none"><path d="m22.613 30.738.112.225.112-.226M22.613 33.737l.112.225.112-.225M22.613 35.737l.112.226.113-.226M22.613 38.737l.112.226.113-.226M22.613 40.737l.112.226.113-.226M22.613 43.738l.112.225.112-.226M22.613 45.737l.112.225.112-.225M22.613 48.737l.112.226.113-.226" style="fill:none;stroke:#000;stroke-width:.0500001;stroke-linecap:round;stroke-linejoin:round;stroke-dasharray:none;stroke-opacity:1" transform="matrix(10 0 0 10 -80.375 -295.625)"/></g><g style="stroke:#000;stroke-width:.05;stroke-dasharray:none"><path d="m10.963 47.613-.226.112.226.112M13.963 47.613l-.226.112.226.112M15.963 47.613l-.226.112.226.112M18.963 47.613l-.226.112.226.112M20.963 47.613l-.226.112.226.112M23.963 47.613l-.226.112.226.112M25.963 47.613l-.226.112.226.112M28.963 47.613l-.226.112.226.112" style="fill:none;stroke:#000;stroke-width:.0500001;stroke-linecap:round;stroke-linejoin:round;stroke-dasharray:none;stroke-opacity:1" transform="matrix(10 0 0 10 -80.375 -295.625)"/></g><g style="stroke:#000;stroke-width:.05;stroke-dasharray:none"><path d="m26.863 30.963.112-.226.112.226M26.863 33.963l.112-.226.112.225M26.863 35.963l.112-.226.113.226M26.863 38.963l.112-.226.113.226M26.863 40.963l.112-.226.113.226M26.863 43.963l.112-.226.112.226M26.863 45.963l.112-.226.112.225M26.863 48.963l.112-.226.113.226" style="fill:none;stroke:#000;stroke-width:.0500001;stroke-linecap:round;stroke-linejoin:round;stroke-dasharray:none;stroke-opacity:1" transform="matrix(10 0 0 10 -80.375 -295.625)"/></g><g style="stroke:#000;stroke-width:.05;stroke-dasharray:none"><path d="m27.613 30.738.112.225.112-.226M27.613 33.737l.112.225.112-.225M27.613 35.737l.112.226.113-.226M27.613 38.737l.112.226.113-.226M27.613 40.737l.112.226.113-.226M27.613 43.738l.112.225.112-.226M27.613 45.737l.112.225.112-.225M27.613 48.737l.112.226.113-.226" style="fill:none;stroke:#000;stroke-width:.0500001;stroke-linecap:round;stroke-linejoin:round;stroke-dasharray:none;stroke-opacity:1" transform="matrix(10 0 0 10 -80.375 -295.625)"/></g><path d="M11.975 31.35v-1l.5-.5h1.975l.4.4v19.2l-.4.4h-1.975l-.5-.5v-1l.375-1-.375-1v-3l.375-1-.375-1v-3l.375-1-.375-1v-3l.375-1z" style="fill:none;stroke:#000;stroke-width:.05;stroke-linecap:round;stroke-linejoin:round;stroke-dasharray:none;stroke-opacity:1" transform="matrix(10 0 0 10 -80.375 -295.625)"/><path d="M12.725 39.35v2l-.375 1 .375 1v3l-.375 1 .375 1v1l.25.25h1.375l.25-.25v-19l-.25-.25h-1.375l-.25.25v1l-.375 1 .375 1v3l-.375 1 .375 1zM16.975 43.35l.375-1-.375-1v-3l.375-1-.375-1v-3l.375-1-.375-1v-1l.5-.5h1.975l.4.4v19.2l-.4.4h-1.975l-.5-.5v-1l.375-1-.375-1v-2z" style="fill:none;stroke:#000;stroke-width:.05;stroke-linecap:round;stroke-linejoin:round;stroke-dasharray:none;stroke-opacity:1" transform="matrix(10 0 0 10 -80.375 -295.625)"/><path d="M17.725 39.35v2l-.375 1 .375 1v3l-.375 1 .375 1v1l.25.25h1.375l.25-.25v-19l-.25-.25h-1.375l-.25.25v1l-.375 1 .375 1v3l-.375 1 .375 1zM21.975 43.35l.375-1-.375-1v-3l.375-1-.375-1v-3l.375-1-.375-1v-1l.5-.5h1.975l.4.4v19.2l-.4.4h-1.975l-.5-.5v-1l.375-1-.375-1v-2z" style="fill:none;stroke:#000;stroke-width:.05;stroke-linecap:round;stroke-linejoin:round;stroke-dasharray:none;stroke-opacity:1" transform="matrix(10 0 0 10 -80.375 -295.625)"/><path d="m22.35 37.35.375 1v3l-.375 1 .375 1v3l-.375 1 .375 1v1l.25.25h1.375l.25-.25v-19l-.25-.25h-1.375l-.25.25v1l-.375 1 .375 1v3zM26.975 44.35v2l.375 1-.375 1v1l.5.5h2.475l.4-.4v-19.2l-.4-.4h-2.475l-.5.5v1l.375 1-.375 1v3l.375 1-.375 1v3l.375 1-.375 1z" style="fill:none;stroke:#000;stroke-width:.05;stroke-linecap:round;stroke-linejoin:round;stroke-dasharray:none;stroke-opacity:1" transform="matrix(10 0 0 10 -80.375 -295.625)"/><path d="m27.725 38.35-.375-1 .375-1v-3l-.375-1 .375-1v-1l.25-.25h1.875l.25.25v19l-.25.25h-1.875l-.25-.25v-1l-.375-1 .375-1v-3l-.375-1 .375-1v-2z" style="fill:none;stroke:#000;stroke-width:.05;stroke-linecap:round;stroke-linejoin:round;stroke-dasharray:none;stroke-opacity:1" transform="matrix(10 0 0 10 -80.375 -295.625)"/><path d="m11.35 32.725 1-.375 1 .375h3l1-.375 1 .375h3l1-.375 1 .375h3l1-.375 1 .375h1l.25.25v1.375l-.25.25h-19l-.25-.25v-1.375l.25-.25zM8.85 31.975h2.5l1 .375 1-.375h3l1 .375 1-.375h3l1 .375 1-.375h3l1 .375 1-.375h3.5" style="fill:none;stroke:#000;stroke-width:.05;stroke-linecap:round;stroke-linejoin:round;stroke-dasharray:none;stroke-opacity:1" transform="matrix(10 0 0 10 -80.375 -295.625)"/><g style="stroke:#000;stroke-width:.05;stroke-dasharray:none"><path d="m13.737 31.863.226.112-.226.113M10.737 31.863l.226.112-.226.113M18.737 31.863l.226.112-.226.113M15.737 31.863l.226.112-.226.113M23.737 31.863l.226.112-.226.112M20.738 31.863l.225.112-.226.112M28.737 31.863l.226.112-.226.113M25.737 31.863l.226.112-.226.113M31.625 31.863l.225.112-.225.112M8.625 31.863l.225.112-.225.112" style="fill:none;stroke:#000;stroke-width:.0500001;stroke-linecap:round;stroke-linejoin:round;stroke-dasharray:none;stroke-opacity:1" transform="matrix(10 0 0 10 -80.375 -295.625)"/></g><path d="M8.85 36.974h1.5l1 .001 1 .375 1-.375h3l1 .375 1-.375h3l1 .375 1-.375h3l1 .375 1-.375h3.5M11.35 37.725l1-.375 1 .375h3l1-.375 1 .375h3l1-.375 1 .375h3l1-.375 1 .375h1l.25.25v1.375l-.25.25h-19l-.25-.25v-1.375l.25-.25z" style="fill:none;stroke:#000;stroke-width:.05;stroke-linecap:round;stroke-linejoin:round;stroke-dasharray:none;stroke-opacity:1" transform="matrix(10 0 0 10 -80.375 -295.625)"/><g style="stroke:#000;stroke-width:.05;stroke-dasharray:none"><path d="m13.737 36.863.226.112-.226.112M10.737 36.863l.226.112-.226.112M18.737 36.863l.226.112-.226.112M15.737 36.863l.226.112-.226.112M23.737 36.863l.226.112-.226.112M20.738 36.863l.225.112-.226.112M28.737 36.863l.226.112-.226.112M25.737 36.863l.226.112-.226.112M31.625 36.863l.225.112-.225.112M8.625 36.863l.225.112-.225.112" style="fill:none;stroke:#000;stroke-width:.0500001;stroke-linecap:round;stroke-linejoin:round;stroke-dasharray:none;stroke-opacity:1" transform="matrix(10 0 0 10 -80.375 -295.625)"/></g><path d="M31.85 41.975h-3.5l-1 .375-1-.375h-3l-1 .375-1-.375h-3l-1 .375-1-.375h-3l-1 .375-1-.375h-1l-1.5-.001M11.35 42.725l1-.375 1 .375h3l1-.375 1 .375h3l1-.375 1 .375h3l1-.375 1 .375h1l.25.25v1.375l-.25.25h-19l-.25-.25v-1.375l.25-.25z" style="fill:none;stroke:#000;stroke-width:.05;stroke-linecap:round;stroke-linejoin:round;stroke-dasharray:none;stroke-opacity:1" transform="matrix(10 0 0 10 -80.375 -295.625)"/><g style="stroke:#000;stroke-width:.05;stroke-dasharray:none"><path d="m13.737 41.863.226.112-.226.112M10.737 41.863l.226.112-.226.112M18.737 41.863l.226.112-.226.112M15.737 41.863l.226.112-.226.112M23.737 41.863l.226.112-.226.112M20.738 41.863l.225.112-.226.112M28.737 41.863l.226.112-.226.112M25.737 41.863l.226.112-.226.112M31.625 41.863l.225.112-.225.112M8.625 41.863l.225.112-.225.112" style="fill:none;stroke:#000;stroke-width:.0500001;stroke-linecap:round;stroke-linejoin:round;stroke-dasharray:none;stroke-opacity:1" transform="matrix(10 0 0 10 -80.375 -295.625)"/></g><path d="M8.85 46.974h1.5l1 .001 1 .375 1-.375h3l1 .375 1-.375h3l1 .375 1-.375h3l1 .375 1-.375h3.5M11.35 47.725l1-.375 1 .375h3l1-.375 1 .375h3l1-.375 1 .375h3l1-.375 1 .375h1l.25.25v1.875l-.25.25h-19l-.25-.25v-1.875l.25-.25z" style="fill:none;stroke:#000;stroke-width:.05;stroke-linecap:round;stroke-linejoin:round;stroke-dasharray:none;stroke-opacity:1" transform="matrix(10 0 0 10 -80.375 -295.625)"/><g style="stroke:#000;stroke-width:.05;stroke-dasharray:none"><path d="m13.737 46.863.226.112-.226.112M10.737 46.863l.226.112-.226.112M18.737 46.863l.226.112-.226.112M15.737 46.863l.226.112-.226.112M23.737 46.863l.226.112-.226.112M20.738 46.863l.225.112-.226.112M28.737 46.863l.226.112-.226.112M25.737 46.863l.226.112-.226.112M31.625 46.863l.225.112-.225.112M8.625 46.863l.225.112-.225.112" style="fill:none;stroke:#000;stroke-width:.0500001;stroke-linecap:round;stroke-linejoin:round;stroke-dasharray:none;stroke-opacity:1" transform="matrix(10 0 0 10 -80.375 -295.625)"/></g></g><g style="fill:#e6e6e6;stroke-width:.05;stroke-dasharray:none"><path d="m12.35 31.975.263.112.112.263-.112.262-.263.113-.262-.113-.113-.262.113-.263ZM17.35 31.975l.262.112.113.263-.113.262-.262.113-.263-.113-.112-.262.112-.263ZM22.35 31.975l.262.112.113.263-.113.262-.262.113-.263-.113-.112-.262.112-.263ZM27.35 31.975l.262.112.113.263-.113.262-.262.113-.263-.113-.112-.262.112-.263ZM12.35 36.975l.263.112.112.263-.112.262-.263.113-.262-.113-.113-.262.113-.263ZM17.35 36.975l.262.112.113.263-.113.262-.262.113-.263-.113-.112-.262.112-.263ZM22.35 36.975l.262.112.113.263-.113.262-.262.113-.263-.113-.112-.262.112-.263ZM27.35 36.975l.262.112.113.263-.113.262-.262.113-.263-.113-.112-.262.112-.263ZM12.35 41.975l.263.112.112.263-.112.262-.263.113-.262-.113-.113-.262.113-.263ZM17.35 41.975l.262.112.113.263-.113.262-.262.113-.263-.113-.112-.262.112-.263ZM22.35 41.975l.262.112.113.263-.113.262-.262.113-.263-.113-.112-.262.112-.263ZM27.35 41.975l.262.112.113.263-.113.262-.262.113-.263-.113-.112-.262.112-.263ZM12.35 46.975l.263.112.112.263-.112.262-.263.113-.262-.113-.113-.262.113-.263ZM17.35 46.975l.262.112.113.263-.113.262-.262.113-.263-.113-.112-.262.112-.263ZM22.35 46.975l.262.112.113.263-.113.262-.262.113-.263-.113-.112-.262.112-.263ZM27.35 46.975l.262.112.113.263-.113.262-.262.113-.263-.113-.112-.262.112-.263Z" style="fill:#e6e6e6;stroke:#000;stroke-width:.05;stroke-linecap:round;stroke-linejoin:round;stroke-dasharray:none;stroke-opacity:1" transform="matrix(10 0 0 10 -80.375 -295.625)"/></g></svg>